<svg width="224" height="42" viewBox="0 0 224 42" fill="none" xmlns="http://www.w3.org/2000/svg">
<path d="M203.122 0C191.625 0 182.271 9.2377 182.271 20.603C182.271 31.9684 191.625 41.2061 203.122 41.2061C214.62 41.2061 223.973 31.9684 223.973 20.603C224 9.2377 214.62 0 203.122 0ZM203.122 2.2623C211.431 2.2623 218.157 10.5035 218.157 20.603C218.157 30.7295 211.404 38.9707 203.122 38.9707C194.814 38.9707 188.087 30.7295 188.087 20.603C188.087 10.4766 194.841 2.2623 203.122 2.2623ZM114.144 36.7892C111.437 40.452 107.149 41.2061 104.013 41.2061C99.8057 41.2061 94.9816 39.7248 92.0067 37.5164L91.4171 37.0855C90.9347 36.7084 90.6667 36.5199 90.0503 36.0082L89.5678 35.6042L89.9699 35.1464C90.6131 34.3923 91.5243 33.9344 92.4355 33.9344C93.2127 33.9344 93.9363 34.2576 94.5796 34.8501C97.2328 37.4087 100.717 38.9438 103.906 38.9438C105.648 38.9438 108.114 38.4859 109.776 36.2237C111.169 34.3653 112.429 30.2986 108.355 26.7705C107.337 25.8817 104.791 23.781 102.298 21.7342C99.9397 19.7682 97.5008 17.7482 96.3752 16.7787C93.2127 14.0585 91.3367 8.86066 94.7672 3.87822C96.536 1.3466 99.6717 0 103.853 0C107.497 0 110.874 1.02342 112.161 1.66979C112.161 1.66979 113.045 2.07377 113.635 2.37002L114.224 2.66628L113.903 3.23185C113.447 4.03981 112.724 4.49766 111.893 4.49766C111.464 4.49766 111.035 4.363 110.606 4.12061C109.079 3.20492 106.506 2.23536 103.772 2.23536C102.084 2.23536 99.7521 2.63934 98.3585 4.55152C96.5628 7.02927 97.0452 10.1534 99.4841 12.1733C100.422 12.9543 103.129 15.055 105.729 17.1019C108.221 19.041 110.767 21.034 112 22.0304C117.333 26.3126 117.092 32.8571 114.144 36.7892ZM72.4422 0H70.9146L70.7538 0.403981C70.7538 0.403981 57.0318 35.4696 55.1558 40.2904L54.9414 40.8829L55.5042 41.0984C56.3082 41.4215 57.273 40.9906 57.5946 40.1827L62.392 27.9016H77.0787L80.8308 37.5164C81.7421 39.8326 83.6181 41.26 85.7621 41.26C86.4322 41.26 87.0754 41.1253 87.7454 40.856L88.335 40.6405L72.4422 0ZM63.2764 25.6393L69.7354 9.10304L76.1943 25.6393H63.2764ZM51.6985 40.829L51.1089 40.9906C50.6533 41.1253 50.1709 41.1792 49.6884 41.1792C47.3032 41.1792 45.3467 39.6979 44.7035 37.4087C44.3283 36.1159 38.6198 16.1593 36.8777 10.0726L24.7102 41.2061H23.1826L11.1223 10.2881C9.27303 16.6979 2.97487 38.7283 2.59967 40.0211C2.41206 40.7213 1.76884 41.2061 1.04523 41.2061C0.884422 41.2061 0.750419 41.1792 0.589615 41.1522L0 40.9637L11.7387 0H13.3467L25.8626 32.0761L38.4054 0H40.0134L51.6985 40.829ZM184.442 39.5632V40.1827H163.35V0H163.967C166.834 0 169.166 2.34309 169.166 5.22482V37.9473H182.834C183.719 37.9473 184.442 38.6745 184.442 39.5632ZM155.739 19.418V34.5L155.578 34.6885C151.638 38.8091 146.064 41.2061 140.328 41.2061C128.831 41.2061 119.477 31.9684 119.477 20.603C119.477 9.2377 128.831 0 140.328 0C145.42 0 150.325 1.83138 154.131 5.17096L154.613 5.60187L154.157 6.05972C153.621 6.59836 152.71 6.94848 151.799 6.94848C150.915 6.94848 150.111 6.62529 149.494 6.03279C146.948 3.58197 143.678 2.23536 140.328 2.23536C132.047 2.23536 125.293 10.4766 125.293 20.5761C125.293 30.7026 132.047 38.9438 140.328 38.9438C143.839 38.9438 147.216 37.4625 149.923 34.7155V21.6534H138.265V21.034C138.265 20.2529 138.881 19.418 139.873 19.418H155.739Z" fill="black"/>
</svg>
